<svg width="907" height="263" viewBox="0 0 907 263" fill="none" xmlns="http://www.w3.org/2000/svg">
<path d="M888.667 233H878V125H888.667V233Z" fill="white"/>
<path d="M888.667 233H878V125H888.667V233Z" stroke="#424446" stroke-width="5.33333" stroke-miterlimit="10" stroke-linecap="round" stroke-linejoin="round"/>
<path d="M874.423 124.392C874.423 124.392 860.589 121.445 863.54 75.4027C866.491 29.3614 888.667 19.3334 888.667 19.3334V124.403L874.423 124.392Z" fill="white"/>
<path d="M874.423 124.392C874.423 124.392 860.589 121.445 863.54 75.4027C866.491 29.3614 888.667 19.3334 888.667 19.3334V124.403L874.423 124.392Z" stroke="#424446" stroke-width="5.33333" stroke-miterlimit="10" stroke-linecap="round" stroke-linejoin="round"/>
<path d="M58.52 20.6107L48.2578 68.0987L39.7584 20.6107L31.2588 68.0987L20.9953 20.6107C16.2307 55.2014 11.612 84.4054 17.1683 97.416C22.2917 109.4 31.3333 113.007 36.6666 114.053V233H47.3333V113.692C52.6666 112.263 59.0973 108.277 63.744 97.416C69.304 84.4054 63.2853 55.2014 58.52 20.6107Z" fill="white"/>
<path d="M58.52 20.6107L48.2578 68.0987L39.7584 20.6107L31.2588 68.0987L20.9953 20.6107C16.2307 55.2014 11.612 84.4054 17.1683 97.416C22.2917 109.4 31.3333 113.007 36.6666 114.053V233H47.3333V113.692C52.6666 112.263 59.0973 108.277 63.744 97.416C69.304 84.4054 63.2853 55.2014 58.52 20.6107Z" stroke="#424446" stroke-width="5.33333" stroke-miterlimit="10" stroke-linecap="round" stroke-linejoin="round"/>
<path d="M110.433 156V94.6181H131.173C135.969 94.6181 139.905 95.4373 142.982 97.0758C146.059 98.6942 148.337 100.922 149.816 103.759C151.294 106.597 152.034 109.824 152.034 113.44C152.034 117.057 151.294 120.264 149.816 123.061C148.337 125.859 146.069 128.056 143.012 129.655C139.955 131.233 136.049 132.023 131.293 132.023H114.509V125.309H131.053C134.33 125.309 136.968 124.829 138.966 123.87C140.984 122.911 142.443 121.553 143.342 119.794C144.261 118.016 144.721 115.898 144.721 113.44C144.721 110.983 144.261 108.835 143.342 106.996C142.423 105.158 140.954 103.739 138.936 102.74C136.918 101.721 134.25 101.212 130.934 101.212H117.866V156H110.433ZM139.326 128.426L154.431 156H145.799L130.934 128.426H139.326ZM183.072 156V94.6181H220.117V101.212H190.505V121.952H218.199V128.546H190.505V149.406H220.596V156H183.072ZM285.735 109.964C285.375 106.926 283.916 104.569 281.359 102.89C278.801 101.212 275.664 100.373 271.948 100.373C269.23 100.373 266.853 100.812 264.815 101.691C262.796 102.571 261.218 103.779 260.079 105.318C258.96 106.857 258.401 108.605 258.401 110.563C258.401 112.201 258.79 113.61 259.569 114.789C260.369 115.948 261.388 116.917 262.627 117.696C263.865 118.456 265.164 119.085 266.523 119.584C267.882 120.064 269.13 120.454 270.269 120.753L276.503 122.432C278.102 122.851 279.88 123.431 281.838 124.17C283.817 124.909 285.705 125.918 287.503 127.197C289.321 128.456 290.82 130.075 291.999 132.053C293.178 134.031 293.767 136.458 293.767 139.336C293.767 142.653 292.898 145.65 291.16 148.327C289.441 151.005 286.924 153.133 283.607 154.711C280.31 156.29 276.304 157.079 271.588 157.079C267.192 157.079 263.386 156.37 260.169 154.951C256.972 153.532 254.454 151.554 252.616 149.017C250.798 146.479 249.769 143.532 249.529 140.175H257.202C257.402 142.493 258.181 144.411 259.54 145.93C260.918 147.428 262.657 148.547 264.755 149.286C266.873 150.006 269.15 150.365 271.588 150.365C274.425 150.365 276.973 149.906 279.231 148.987C281.489 148.048 283.277 146.749 284.596 145.09C285.915 143.412 286.574 141.454 286.574 139.216C286.574 137.178 286.004 135.519 284.866 134.241C283.727 132.962 282.228 131.923 280.37 131.124C278.512 130.324 276.503 129.625 274.345 129.026L266.793 126.868C261.997 125.489 258.201 123.521 255.403 120.963C252.606 118.406 251.207 115.059 251.207 110.923C251.207 107.486 252.137 104.489 253.995 101.931C255.873 99.3536 258.391 97.3555 261.548 95.9368C264.725 94.4982 268.271 93.7789 272.188 93.7789C276.144 93.7789 279.66 94.4882 282.738 95.9069C285.815 97.3055 288.252 99.2237 290.051 101.661C291.869 104.099 292.828 106.866 292.928 109.964H285.735ZM321.284 101.212V94.6181H367.32V101.212H348.018V156H340.585V101.212H321.284ZM392.791 156H384.998L407.537 94.6181H415.21L437.749 156H429.956L411.613 104.329H411.134L392.791 156ZM395.668 132.023H427.079V138.616H395.668V132.023ZM506.244 94.6181H513.677V135.26C513.677 139.456 512.688 143.202 510.71 146.499C508.751 149.776 505.984 152.363 502.407 154.262C498.831 156.14 494.635 157.079 489.819 157.079C485.004 157.079 480.808 156.14 477.231 154.262C473.655 152.363 470.877 149.776 468.899 146.499C466.941 143.202 465.962 139.456 465.962 135.26V94.6181H473.395V134.66C473.395 137.657 474.054 140.325 475.373 142.663C476.692 144.98 478.57 146.809 481.008 148.147C483.465 149.466 486.403 150.126 489.819 150.126C493.236 150.126 496.173 149.466 498.631 148.147C501.089 146.809 502.967 144.98 504.266 142.663C505.584 140.325 506.244 137.657 506.244 134.66V94.6181ZM547.173 156V94.6181H567.913C572.708 94.6181 576.645 95.4373 579.722 97.0758C582.799 98.6942 585.077 100.922 586.555 103.759C588.034 106.597 588.773 109.824 588.773 113.44C588.773 117.057 588.034 120.264 586.555 123.061C585.077 125.859 582.809 128.056 579.752 129.655C576.695 131.233 572.788 132.023 568.033 132.023H551.249V125.309H567.793C571.07 125.309 573.708 124.829 575.706 123.87C577.724 122.911 579.182 121.553 580.081 119.794C581.001 118.016 581.46 115.898 581.46 113.44C581.46 110.983 581.001 108.835 580.081 106.996C579.162 105.158 577.694 103.739 575.676 102.74C573.658 101.721 570.99 101.212 567.673 101.212H554.606V156H547.173ZM576.065 128.426L591.171 156H582.539L567.673 128.426H576.065ZM622.329 156H614.536L637.075 94.6181H644.748L667.287 156H659.494L641.151 104.329H640.672L622.329 156ZM625.206 132.023H656.617V138.616H625.206V132.023ZM744.174 94.6181V156H736.981L703.532 107.806H702.933V156H695.5V94.6181H702.693L736.261 142.932H736.861V94.6181H744.174ZM774.343 101.212V94.6181H820.379V101.212H801.078V156H793.645V101.212H774.343Z" fill="#424446"/>
<path d="M103.333 233H259.333" stroke="#424446" stroke-width="5.33333" stroke-miterlimit="10" stroke-linecap="round"/>
<path d="M668.667 233H824.667" stroke="#424446" stroke-width="5.33333" stroke-miterlimit="10" stroke-linecap="round"/>
<path d="M289.583 251.905C288.779 251.905 288.129 251.72 287.633 251.348C287.169 250.977 286.937 250.528 286.937 250.002V219.922C286.937 219.272 287.216 218.792 287.773 218.483C288.33 218.143 288.933 217.972 289.583 217.972H298.589C300.167 217.972 301.668 218.204 303.091 218.669C304.515 219.102 305.675 219.907 306.573 221.083C307.47 222.258 307.919 223.945 307.919 226.142C307.919 228.03 307.563 229.608 306.851 230.877C306.14 232.115 305.18 232.997 303.973 233.523C304.933 233.863 305.768 234.343 306.48 234.962C307.192 235.55 307.749 236.339 308.151 237.33C308.553 238.289 308.755 239.542 308.755 241.09V242.064C308.755 244.478 308.337 246.412 307.501 247.867C306.697 249.29 305.583 250.327 304.159 250.977C302.766 251.596 301.204 251.905 299.471 251.905H289.583ZM292.972 246.614H298.171C299.594 246.614 300.708 246.211 301.513 245.407C302.318 244.602 302.72 243.318 302.72 241.554V240.811C302.72 238.985 302.318 237.716 301.513 237.005C300.708 236.262 299.594 235.89 298.171 235.89H292.972V246.614ZM292.972 231.156H298.171C299.44 231.156 300.368 230.784 300.956 230.042C301.575 229.299 301.884 228.34 301.884 227.164C301.884 226.328 301.73 225.632 301.42 225.075C301.111 224.487 300.677 224.038 300.12 223.728C299.563 223.419 298.898 223.264 298.124 223.264H292.972V231.156ZM321.637 251.905C321.08 251.905 320.508 251.797 319.92 251.58C319.332 251.364 318.837 251.07 318.434 250.698C318.032 250.327 317.831 249.894 317.831 249.399C317.831 249.306 317.846 249.151 317.877 248.935L326.836 219.736C327.053 219.056 327.533 218.545 328.275 218.204C329.049 217.864 329.869 217.694 330.736 217.694C331.633 217.694 332.453 217.864 333.196 218.204C333.939 218.545 334.418 219.056 334.635 219.736L343.594 248.935C343.656 249.151 343.687 249.306 343.687 249.399C343.687 249.863 343.47 250.296 343.037 250.698C342.635 251.07 342.139 251.364 341.551 251.58C340.963 251.797 340.391 251.905 339.834 251.905C339.339 251.905 338.905 251.828 338.534 251.673C338.194 251.488 337.962 251.163 337.838 250.698L336.074 244.525H325.397L323.68 250.698C323.556 251.163 323.308 251.488 322.937 251.673C322.566 251.828 322.132 251.905 321.637 251.905ZM326.697 239.79H334.774L330.736 225.539L326.697 239.79ZM372.663 252.137C372.261 252.137 371.858 252.014 371.456 251.766C371.085 251.519 370.791 251.163 370.574 250.698L363.982 237.887H360.083V249.956C360.083 250.606 359.774 251.101 359.155 251.441C358.536 251.751 357.839 251.905 357.066 251.905C356.323 251.905 355.627 251.751 354.977 251.441C354.358 251.101 354.049 250.606 354.049 249.956V219.876C354.049 219.35 354.219 218.901 354.559 218.529C354.931 218.158 355.41 217.972 355.998 217.972H365.189C367.232 217.972 369.073 218.266 370.713 218.854C372.384 219.442 373.715 220.448 374.705 221.872C375.696 223.264 376.191 225.198 376.191 227.674C376.191 229.469 375.928 231.001 375.402 232.27C374.876 233.508 374.148 234.513 373.22 235.287C372.323 236.03 371.286 236.587 370.11 236.958L376.237 248.238C376.299 248.362 376.346 248.501 376.377 248.656C376.407 248.78 376.423 248.888 376.423 248.981C376.423 249.476 376.237 249.971 375.866 250.466C375.495 250.962 375.015 251.364 374.427 251.673C373.87 251.983 373.282 252.137 372.663 252.137ZM360.083 233.152H365.189C366.706 233.152 367.913 232.78 368.81 232.038C369.708 231.295 370.156 230.026 370.156 228.231C370.156 226.374 369.708 225.09 368.81 224.378C367.913 223.636 366.706 223.264 365.189 223.264H360.083V233.152ZM414.049 252.37C411.666 252.37 409.593 251.905 407.829 250.977C406.096 250.018 404.749 248.764 403.79 247.217C402.862 245.639 402.397 243.952 402.397 242.157C402.397 240.734 402.661 239.418 403.187 238.211C403.744 236.974 404.455 235.89 405.322 234.962C406.219 234.003 407.179 233.26 408.2 232.734C407.303 231.713 406.529 230.645 405.879 229.531C405.26 228.417 404.951 227.102 404.951 225.585C404.951 223.79 405.384 222.274 406.25 221.036C407.117 219.798 408.293 218.854 409.778 218.204C411.264 217.524 412.888 217.183 414.652 217.183C416.54 217.183 418.165 217.493 419.526 218.112C420.888 218.7 421.94 219.411 422.683 220.247C423.426 221.083 423.797 221.872 423.797 222.614C423.797 223.295 423.488 223.93 422.869 224.518C422.281 225.106 421.631 225.4 420.919 225.4C420.424 225.4 419.991 225.229 419.619 224.889C419.248 224.549 418.861 224.162 418.459 223.728C418.056 223.264 417.561 222.862 416.973 222.522C416.416 222.181 415.674 222.011 414.745 222.011C413.569 222.011 412.579 222.351 411.774 223.032C411.001 223.682 410.614 224.626 410.614 225.864C410.614 226.792 410.877 227.705 411.403 228.603C411.929 229.469 412.563 230.305 413.306 231.109C414.049 231.883 414.745 232.61 415.395 233.291L422.869 241.182C423.364 239.975 423.642 238.83 423.704 237.747C423.766 236.633 423.828 235.705 423.89 234.962C423.952 234.374 424.153 233.925 424.493 233.616C424.834 233.306 425.53 233.152 426.582 233.152C427.604 233.152 428.284 233.399 428.625 233.894C428.965 234.39 429.135 235.07 429.135 235.937C429.135 236.711 429.043 237.608 428.857 238.629C428.671 239.62 428.393 240.656 428.021 241.739C427.65 242.823 427.155 243.89 426.536 244.942L430.249 248.842C430.404 249.027 430.513 249.213 430.574 249.399C430.636 249.553 430.667 249.708 430.667 249.863C430.667 250.482 430.373 251.054 429.785 251.58C429.197 252.076 428.563 252.323 427.882 252.323C427.604 252.323 427.356 252.261 427.139 252.137C426.923 252.045 426.66 251.874 426.35 251.627L423.519 248.656C422.343 249.739 420.965 250.637 419.387 251.348C417.84 252.029 416.06 252.37 414.049 252.37ZM414.745 247.124C415.952 247.124 416.973 246.923 417.809 246.521C418.675 246.118 419.387 245.608 419.944 244.989L411.542 236.262C411.047 236.633 410.552 237.082 410.057 237.608C409.593 238.103 409.206 238.691 408.896 239.372C408.618 240.022 408.479 240.78 408.479 241.647C408.479 242.668 408.711 243.596 409.175 244.432C409.67 245.236 410.382 245.886 411.31 246.381C412.239 246.877 413.384 247.124 414.745 247.124ZM460.227 251.905C459.577 251.905 458.974 251.751 458.417 251.441C457.86 251.101 457.581 250.606 457.581 249.956V219.876C457.581 219.195 457.891 218.715 458.51 218.437C459.16 218.127 459.856 217.972 460.599 217.972C461.372 217.972 462.069 218.127 462.688 218.437C463.307 218.715 463.616 219.195 463.616 219.876V246.614H474.989C475.608 246.614 476.057 246.892 476.335 247.449C476.614 247.975 476.753 248.579 476.753 249.259C476.753 249.909 476.614 250.513 476.335 251.07C476.057 251.627 475.608 251.905 474.989 251.905H460.227ZM497.119 252.184C495.076 252.184 493.235 251.844 491.595 251.163C489.954 250.451 488.639 249.321 487.649 247.774C486.69 246.196 486.21 244.107 486.21 241.507V228.649C486.21 226.049 486.69 223.976 487.649 222.429C488.639 220.85 489.939 219.721 491.548 219.04C493.188 218.328 495.045 217.972 497.119 217.972C499.161 217.972 501.002 218.328 502.643 219.04C504.314 219.721 505.629 220.85 506.588 222.429C507.548 223.976 508.027 226.049 508.027 228.649V241.507C508.027 244.107 507.548 246.196 506.588 247.774C505.629 249.321 504.314 250.451 502.643 251.163C501.002 251.844 499.161 252.184 497.119 252.184ZM497.119 246.892C498.635 246.892 499.826 246.459 500.693 245.592C501.559 244.726 501.993 243.364 501.993 241.507V228.649C501.993 226.792 501.559 225.431 500.693 224.564C499.826 223.698 498.635 223.264 497.119 223.264C495.602 223.264 494.411 223.698 493.544 224.564C492.709 225.431 492.291 226.792 492.291 228.649V241.507C492.291 243.364 492.709 244.726 493.544 245.592C494.411 246.459 495.602 246.892 497.119 246.892ZM531.433 252.184C529.329 252.184 527.441 251.844 525.77 251.163C524.099 250.451 522.768 249.321 521.778 247.774C520.787 246.196 520.292 244.107 520.292 241.507V219.876C520.292 219.195 520.602 218.715 521.221 218.437C521.84 218.127 522.536 217.972 523.31 217.972C524.052 217.972 524.733 218.127 525.352 218.437C526.002 218.715 526.327 219.195 526.327 219.876V241.507C526.327 243.333 526.776 244.695 527.673 245.592C528.571 246.459 529.824 246.892 531.433 246.892C533.011 246.892 534.249 246.459 535.147 245.592C536.075 244.695 536.539 243.333 536.539 241.507V219.876C536.539 219.195 536.833 218.715 537.421 218.437C538.04 218.127 538.752 217.972 539.557 217.972C540.299 217.972 540.98 218.127 541.599 218.437C542.249 218.715 542.574 219.195 542.574 219.876V241.507C542.574 244.107 542.079 246.196 541.088 247.774C540.098 249.321 538.752 250.451 537.05 251.163C535.379 251.844 533.507 252.184 531.433 252.184ZM558.206 251.905C557.463 251.905 556.767 251.751 556.117 251.441C555.498 251.101 555.189 250.606 555.189 249.956V219.876C555.189 219.226 555.498 218.746 556.117 218.437C556.767 218.127 557.463 217.972 558.206 217.972C558.949 217.972 559.552 218.05 560.016 218.204C560.511 218.359 560.96 218.669 561.362 219.133C561.796 219.566 562.244 220.247 562.709 221.175L571.668 238.49V219.876C571.668 219.195 571.977 218.715 572.596 218.437C573.246 218.127 573.942 217.972 574.685 217.972C575.459 217.972 576.155 218.127 576.774 218.437C577.393 218.715 577.702 219.195 577.702 219.876V249.956C577.702 250.606 577.393 251.101 576.774 251.441C576.155 251.751 575.459 251.905 574.685 251.905C573.973 251.905 573.308 251.766 572.689 251.488C572.101 251.209 571.621 250.714 571.25 250.002L561.223 231.341V249.956C561.223 250.606 560.914 251.101 560.295 251.441C559.676 251.751 558.98 251.905 558.206 251.905ZM601.072 252.184C599.03 252.184 597.188 251.844 595.548 251.163C593.908 250.451 592.593 249.321 591.602 247.774C590.643 246.196 590.163 244.107 590.163 241.507V228.649C590.163 226.049 590.643 223.976 591.602 222.429C592.593 220.85 593.893 219.721 595.502 219.04C597.142 218.328 598.937 217.972 600.886 217.972C603.053 217.972 604.956 218.328 606.596 219.04C608.267 219.752 609.583 220.773 610.542 222.104C611.501 223.434 611.981 225.028 611.981 226.885C611.981 228.03 611.733 228.804 611.238 229.206C610.743 229.577 609.985 229.763 608.964 229.763C608.159 229.763 607.463 229.624 606.875 229.345C606.287 229.067 605.977 228.572 605.946 227.86C605.915 227.117 605.761 226.405 605.482 225.725C605.234 225.013 604.77 224.425 604.089 223.961C603.44 223.496 602.434 223.264 601.072 223.264C599.556 223.264 598.364 223.713 597.498 224.61C596.662 225.477 596.244 226.823 596.244 228.649V241.507C596.244 243.333 596.662 244.695 597.498 245.592C598.364 246.459 599.556 246.892 601.072 246.892C602.589 246.892 603.78 246.459 604.647 245.592C605.513 244.695 605.946 243.333 605.946 241.507V238.815H602.186C601.598 238.815 601.134 238.567 600.794 238.072C600.484 237.577 600.329 237.036 600.329 236.448C600.329 235.86 600.484 235.318 600.794 234.823C601.134 234.328 601.598 234.08 602.186 234.08H610.078C610.697 234.08 611.161 234.281 611.47 234.684C611.811 235.055 611.981 235.519 611.981 236.076V241.507C611.981 244.107 611.501 246.196 610.542 247.774C609.583 249.321 608.267 250.451 606.596 251.163C604.956 251.844 603.115 252.184 601.072 252.184ZM626.578 251.905C625.928 251.905 625.324 251.751 624.767 251.441C624.21 251.101 623.932 250.606 623.932 249.956V219.922C623.932 219.272 624.21 218.792 624.767 218.483C625.324 218.143 625.928 217.972 626.578 217.972H643.103C643.784 217.972 644.264 218.251 644.542 218.808C644.852 219.365 645.007 219.953 645.007 220.572C645.007 221.315 644.836 221.949 644.496 222.475C644.186 223.001 643.722 223.264 643.103 223.264H629.966V232.548H637.022C637.641 232.548 638.105 232.796 638.415 233.291C638.755 233.755 638.925 234.312 638.925 234.962C638.925 235.488 638.771 236.014 638.461 236.54C638.183 237.036 637.703 237.283 637.022 237.283H629.966V246.614H643.103C643.722 246.614 644.186 246.877 644.496 247.403C644.836 247.929 645.007 248.563 645.007 249.306C645.007 249.925 644.852 250.513 644.542 251.07C644.264 251.627 643.784 251.905 643.103 251.905H626.578Z" fill="#424446"/>
<path d="M369.24 32.0947C368.749 32.0947 368.289 31.9925 367.86 31.7881C367.451 31.5632 367.247 31.2463 367.247 30.8374V10.9654C367.247 10.5361 367.431 10.2192 367.799 10.0147C368.167 9.78984 368.565 9.67739 368.995 9.67739H379.697C380.147 9.67739 380.464 9.86139 380.648 10.2294C380.852 10.5974 380.955 10.9858 380.955 11.3947C380.955 11.8854 380.842 12.3045 380.617 12.6521C380.413 12.9996 380.106 13.1734 379.697 13.1734H371.233V19.3067H375.925C376.334 19.3067 376.641 19.4703 376.845 19.7974C377.07 20.1041 377.183 20.4721 377.183 20.9014C377.183 21.2489 377.08 21.5965 376.876 21.9441C376.692 22.2712 376.375 22.4347 375.925 22.4347H371.233V30.8374C371.233 31.2463 371.029 31.5632 370.62 31.7881C370.211 31.9925 369.751 32.0947 369.24 32.0947ZM400.667 32.2481C400.401 32.2481 400.135 32.1663 399.869 32.0027C399.624 31.8392 399.43 31.6041 399.287 31.2974L394.932 22.8334H392.356V30.8067C392.356 31.2361 392.152 31.5632 391.743 31.7881C391.334 31.9925 390.874 32.0947 390.363 32.0947C389.872 32.0947 389.412 31.9925 388.983 31.7881C388.574 31.5632 388.369 31.2361 388.369 30.8067V10.9347C388.369 10.5872 388.482 10.2907 388.707 10.0454C388.952 9.80006 389.269 9.67739 389.657 9.67739H395.729C397.079 9.67739 398.295 9.87162 399.379 10.2601C400.483 10.6485 401.362 11.3129 402.016 12.2534C402.67 13.1734 402.997 14.4512 402.997 16.0867C402.997 17.2725 402.824 18.2845 402.476 19.1227C402.129 19.9405 401.648 20.6049 401.035 21.1161C400.442 21.6067 399.757 21.9747 398.98 22.2201L403.028 29.6721C403.069 29.7538 403.1 29.8458 403.12 29.9481C403.141 30.0298 403.151 30.1014 403.151 30.1627C403.151 30.4898 403.028 30.8169 402.783 31.1441C402.537 31.4712 402.221 31.7369 401.832 31.9414C401.464 32.1458 401.076 32.2481 400.667 32.2481ZM392.356 19.7054H395.729C396.731 19.7054 397.529 19.4601 398.121 18.9694C398.714 18.4787 399.011 17.6405 399.011 16.4547C399.011 15.2281 398.714 14.3796 398.121 13.9094C397.529 13.4187 396.731 13.1734 395.729 13.1734H392.356V19.7054ZM418.28 32.2787C416.931 32.2787 415.715 32.0538 414.631 31.6041C413.548 31.1338 412.679 30.3876 412.024 29.3654C411.391 28.3227 411.074 26.9427 411.074 25.2254V16.7307C411.074 15.0134 411.391 13.6436 412.024 12.6214C412.679 11.5787 413.537 10.8325 414.6 10.3827C415.684 9.91251 416.911 9.67739 418.28 9.67739C419.63 9.67739 420.846 9.91251 421.93 10.3827C423.034 10.8325 423.903 11.5787 424.536 12.6214C425.17 13.6436 425.487 15.0134 425.487 16.7307V25.2254C425.487 26.9427 425.17 28.3227 424.536 29.3654C423.903 30.3876 423.034 31.1338 421.93 31.6041C420.846 32.0538 419.63 32.2787 418.28 32.2787ZM418.28 28.7827C419.282 28.7827 420.069 28.4965 420.642 27.9241C421.214 27.3516 421.5 26.4521 421.5 25.2254V16.7307C421.5 15.5041 421.214 14.6045 420.642 14.0321C420.069 13.4596 419.282 13.1734 418.28 13.1734C417.279 13.1734 416.492 13.4596 415.919 14.0321C415.367 14.6045 415.091 15.5041 415.091 16.7307V25.2254C415.091 26.4521 415.367 27.3516 415.919 27.9241C416.492 28.4965 417.279 28.7827 418.28 28.7827ZM436.442 32.0947C435.951 32.0947 435.491 31.9925 435.062 31.7881C434.653 31.5632 434.449 31.2361 434.449 30.8067V11.6707C434.449 10.9347 434.653 10.4236 435.062 10.1374C435.491 9.83073 435.951 9.67739 436.442 9.67739C436.933 9.67739 437.341 9.72851 437.669 9.83073C438.016 9.93295 438.333 10.1374 438.619 10.4441C438.926 10.7507 439.243 11.2005 439.57 11.7934L443.342 18.6627L447.083 11.7934C447.451 11.2005 447.768 10.7507 448.034 10.4441C448.32 10.1374 448.637 9.93295 448.985 9.83073C449.332 9.72851 449.741 9.67739 450.211 9.67739C450.722 9.67739 451.182 9.83073 451.591 10.1374C452 10.4236 452.205 10.9347 452.205 11.6707V30.8067C452.205 31.2361 451.99 31.5632 451.561 31.7881C451.152 31.9925 450.702 32.0947 450.211 32.0947C449.721 32.0947 449.261 31.9925 448.831 31.7881C448.422 31.5632 448.218 31.2361 448.218 30.8067V17.6507L444.661 24.0294C444.477 24.3156 444.262 24.5303 444.017 24.6734C443.771 24.7961 443.526 24.8574 443.281 24.8574C443.056 24.8574 442.821 24.7961 442.575 24.6734C442.35 24.5507 442.146 24.3361 441.962 24.0294L438.435 17.4361V30.8067C438.435 31.2361 438.231 31.5632 437.822 31.7881C437.413 31.9925 436.953 32.0947 436.442 32.0947ZM476.291 32.0947C475.8 32.0947 475.34 31.9925 474.911 31.7881C474.502 31.5632 474.297 31.2361 474.297 30.8067V14.4614L473.316 15.4427C473.193 15.5245 473.071 15.5961 472.948 15.6574C472.825 15.6983 472.713 15.7187 472.611 15.7187C472.222 15.7187 471.905 15.5552 471.66 15.2281C471.435 14.8805 471.323 14.5023 471.323 14.0934C471.323 13.8276 471.384 13.5721 471.507 13.3267C471.629 13.0609 471.813 12.8463 472.059 12.6827L475.677 9.92273C475.8 9.8205 475.923 9.74895 476.045 9.70806C476.188 9.64673 476.352 9.61606 476.536 9.61606C476.945 9.61606 477.333 9.73873 477.701 9.98406C478.09 10.2089 478.284 10.5258 478.284 10.9347V30.8067C478.284 31.2361 478.079 31.5632 477.671 31.7881C477.262 31.9925 476.802 32.0947 476.291 32.0947ZM493.651 32.2787C492.425 32.2787 491.372 32.1152 490.493 31.7881C489.613 31.4405 488.888 30.9907 488.315 30.4387C487.743 29.8867 487.324 29.2836 487.058 28.6294C486.792 27.9547 486.659 27.3005 486.659 26.6667C486.659 26.0329 486.813 25.6036 487.119 25.3787C487.446 25.1334 487.917 25.0107 488.53 25.0107C489.082 25.0107 489.562 25.1129 489.971 25.3174C490.401 25.5014 490.615 25.9001 490.615 26.5134C490.615 26.9836 490.758 27.3925 491.045 27.7401C491.331 28.0672 491.709 28.3227 492.179 28.5067C492.649 28.6907 493.181 28.7827 493.774 28.7827C494.796 28.7827 495.604 28.4965 496.197 27.9241C496.789 27.3516 497.086 26.4521 497.086 25.2254V21.9134C496.575 22.5063 495.961 22.9152 495.246 23.1401C494.551 23.3649 493.805 23.4774 493.007 23.4774C491.842 23.4774 490.779 23.2832 489.818 22.8947C488.857 22.5063 488.09 21.8521 487.518 20.9321C486.945 20.0121 486.659 18.7445 486.659 17.1294V16.7307C486.659 15.0134 486.976 13.6436 487.61 12.6214C488.244 11.5787 489.102 10.8325 490.186 10.3827C491.269 9.91251 492.486 9.67739 493.835 9.67739C495.185 9.67739 496.401 9.91251 497.485 10.3827C498.589 10.8325 499.457 11.5787 500.091 12.6214C500.745 13.6436 501.073 15.0134 501.073 16.7307V25.2254C501.073 26.9427 500.735 28.3227 500.061 29.3654C499.406 30.3876 498.517 31.1338 497.393 31.6041C496.289 32.0538 495.041 32.2787 493.651 32.2787ZM493.866 20.3494C494.847 20.3494 495.624 20.1041 496.197 19.6134C496.789 19.1023 497.086 18.2743 497.086 17.1294V16.4547C497.086 15.2281 496.8 14.3387 496.227 13.7867C495.655 13.2347 494.857 12.9587 493.835 12.9587C492.833 12.9587 492.046 13.2347 491.474 13.7867C490.922 14.3387 490.646 15.2281 490.646 16.4547V16.8534C490.646 18.1209 490.922 19.0205 491.474 19.5521C492.046 20.0836 492.844 20.3494 493.866 20.3494ZM515.695 32.2787C514.141 32.2787 512.822 32.0129 511.739 31.4814C510.655 30.9498 509.837 30.2649 509.285 29.4267C508.733 28.5681 508.457 27.6685 508.457 26.7281C508.457 26.0125 508.631 25.5321 508.979 25.2867C509.326 25.0414 509.817 24.9187 510.451 24.9187C511.289 24.9187 511.831 25.0721 512.076 25.3787C512.321 25.6649 512.444 26.0125 512.444 26.4214C512.444 26.9325 512.577 27.3618 512.843 27.7094C513.129 28.0569 513.507 28.3227 513.977 28.5067C514.468 28.6907 515.01 28.7827 515.603 28.7827C516.625 28.7827 517.422 28.5067 517.995 27.9547C518.567 27.4027 518.853 26.5441 518.853 25.3787V24.7961C518.853 23.6307 518.567 22.7721 517.995 22.2201C517.422 21.6476 516.645 21.3614 515.664 21.3614H511.095C510.481 21.3614 510.062 21.2183 509.837 20.9321C509.612 20.6458 509.5 20.2676 509.5 19.7974C509.5 19.6543 509.5 19.5214 509.5 19.3987C509.52 19.2761 509.541 19.1432 509.561 19.0001L510.328 10.9654C510.348 10.5565 510.42 10.2396 510.543 10.0147C510.686 9.78984 510.87 9.67739 511.095 9.67739H520.54C520.949 9.67739 521.245 9.86139 521.429 10.2294C521.634 10.5769 521.736 10.9756 521.736 11.4254C521.736 11.8547 521.634 12.2534 521.429 12.6214C521.245 12.9894 520.949 13.1734 520.54 13.1734H513.64L513.272 18.2334H515.664C516.993 18.2334 518.199 18.4481 519.283 18.8774C520.366 19.2863 521.225 19.9814 521.859 20.9627C522.513 21.9236 522.84 23.2014 522.84 24.7961V25.3787C522.84 27.0347 522.513 28.3738 521.859 29.3961C521.225 30.4183 520.366 31.1543 519.283 31.6041C518.199 32.0538 517.003 32.2787 515.695 32.2787ZM537.585 32.2787C536.236 32.2787 535.019 32.0538 533.936 31.6041C532.852 31.1338 531.993 30.3876 531.36 29.3654C530.726 28.3227 530.409 26.9427 530.409 25.2254V16.7307C530.409 15.0134 530.726 13.6436 531.36 12.6214C531.993 11.5787 532.852 10.8325 533.936 10.3827C535.019 9.91251 536.236 9.67739 537.585 9.67739C538.934 9.67739 540.151 9.91251 541.234 10.3827C542.338 10.8325 543.207 11.5787 543.841 12.6214C544.475 13.6436 544.792 15.0134 544.792 16.7307V25.2254C544.792 26.9427 544.475 28.3227 543.841 29.3654C543.207 30.3876 542.338 31.1338 541.234 31.6041C540.151 32.0538 538.934 32.2787 537.585 32.2787ZM537.585 28.7827C538.587 28.7827 539.374 28.4965 539.946 27.9241C540.519 27.3516 540.805 26.4521 540.805 25.2254V16.7307C540.805 15.5041 540.519 14.6045 539.946 14.0321C539.374 13.4596 538.587 13.1734 537.585 13.1734C536.583 13.1734 535.796 13.4596 535.224 14.0321C534.672 14.6045 534.396 15.5041 534.396 16.7307V25.2254C534.396 26.4521 534.672 27.3516 535.224 27.9241C535.796 28.4965 536.583 28.7827 537.585 28.7827ZM537.585 22.4347C537.156 22.4347 536.808 22.3018 536.542 22.0361C536.297 21.7498 536.174 21.4023 536.174 20.9934C536.174 20.5641 536.297 20.2267 536.542 19.9814C536.808 19.7156 537.156 19.5827 537.585 19.5827C538.035 19.5827 538.382 19.7156 538.628 19.9814C538.893 20.2267 539.026 20.5641 539.026 20.9934C539.026 21.4023 538.893 21.7498 538.628 22.0361C538.382 22.3018 538.035 22.4347 537.585 22.4347Z" fill="#424446"/>
<path d="M103.333 19.6667H339.333" stroke="#424446" stroke-width="5.33333" stroke-miterlimit="10" stroke-linecap="round"/>
<path d="M572.667 19.6667H824.667" stroke="#424446" stroke-width="5.33333" stroke-miterlimit="10" stroke-linecap="round"/>
</svg>
